<svg xmlns="http://www.w3.org/2000/svg" width="512" height="512" viewBox="0 0 512 512" version="1.1">
  <path d="M 369.760 39.496 
C 366.603 40.295, 362.152 41.902, 359.868 43.067 
C 354.958 45.572, 346 53.691, 346 55.637 
C 346 57.859, 350.115 57.199, 356.177 54.003 
C 362.279 50.787, 372.311 48.039, 378.040 48.015 
C 383.729 47.991, 393.095 50.852, 398.335 54.215 
C 404.817 58.374, 408.106 63.531, 408.882 70.749 
C 409.222 73.912, 409.950 76.500, 410.500 76.500 
C 412.026 76.500, 414.998 69.880, 414.989 66.500 
C 414.965 57.888, 404.023 45.023, 393.313 41.016 
C 385.904 38.244, 376.983 37.668, 369.760 39.496 M 239.684 43.404 
C 237.585 44.177, 235.009 45.587, 233.959 46.537 
C 229.025 51.002, 226.442 62.094, 229.120 67.316 
C 229.737 68.517, 232.044 71.088, 234.249 73.028 
C 237.833 76.184, 238.183 76.892, 237.558 79.738 
C 237.125 81.709, 233.816 86.265, 228.862 91.710 
C 218.071 103.571, 216.507 106.884, 214.532 122.065 
C 211.164 147.954, 207.302 158.715, 187.555 197.229 L 174.048 223.572 168.037 227.812 
C 158.859 234.284, 156.844 240.024, 159.560 251.965 L 161.181 259.091 157.360 264.795 
C 155.259 267.933, 153.439 270.667, 153.316 270.870 
C 153.194 271.074, 147.499 272.500, 140.662 274.040 
C 101.598 282.839, 74.894 298.155, 66.202 316.747 
C 62.326 325.040, 62.372 335.203, 66.323 343.250 
C 72.322 355.465, 85.126 365.943, 106.304 375.966 
C 120.888 382.869, 123.013 383.615, 122.965 381.817 
C 122.946 381.093, 122.286 377.575, 121.500 374 
C 118.560 360.634, 120.462 347.962, 126.942 337.750 
C 129.676 333.441, 132 331.652, 132 333.855 
C 132 334.326, 134.813 337.784, 138.250 341.539 
C 162.430 367.957, 213.782 386.991, 273.026 391.494 L 281.552 392.142 283.980 387.821 
C 285.316 385.445, 287.430 382.480, 288.677 381.232 L 290.945 378.964 297.223 383.576 
C 300.675 386.113, 303.627 388.311, 303.783 388.461 
C 303.939 388.611, 301.689 389.897, 298.783 391.319 
C 291.636 394.818, 283.033 402.686, 279.741 408.735 
C 267.702 430.854, 276.606 456.858, 300 467.903 
C 304.718 470.131, 306.851 470.500, 315 470.500 
C 323.619 470.500, 325.128 470.202, 331.274 467.291 
C 348.078 459.331, 357.868 441.398, 355.043 423.750 
C 352.757 409.467, 343.307 396.846, 330.365 390.790 L 323.784 387.710 326.720 386.476 
C 328.334 385.797, 331.255 383.837, 333.210 382.121 
C 335.165 380.404, 337.268 379, 337.884 379 
C 338.499 379, 340.620 381.250, 342.595 384 
C 345.042 387.406, 346.892 389, 348.395 389 
C 352.336 389, 377.719 384.179, 387.534 381.567 
C 418.126 373.424, 440.397 359.296, 447.665 343.420 
C 454.204 329.137, 446.838 311.068, 429.015 297.671 
C 416.160 288.007, 391.893 277.656, 372.302 273.481 
C 364.297 271.774, 364.116 271.671, 364.630 269.100 
C 365.501 264.746, 356.622 254.236, 346.660 247.828 
C 323.748 233.090, 293.165 226.079, 257.066 227.290 
C 233.447 228.082, 214.168 232.064, 192.155 240.696 
C 185.916 243.142, 180.539 244.872, 180.207 244.540 
C 178.967 243.301, 185.761 237.997, 193.500 234.163 
C 218.867 221.597, 250.236 215.619, 278.794 217.909 
C 313.198 220.668, 338.128 230.988, 351.272 247.914 
C 353.871 251.261, 356.421 254, 356.938 254 
C 358.604 254, 359.364 244.812, 358.094 240.025 
C 357.392 237.379, 352.317 228.558, 345.872 218.782 
C 339.445 209.033, 333.327 198.403, 331.197 193.282 
C 327.979 185.547, 327.540 183.486, 327.521 176 
C 327.494 165.176, 329.825 160.055, 338.936 150.916 
C 346.270 143.560, 356.083 138.129, 366.994 135.390 
C 376.170 133.086, 
  391.867 133.835, 397.750 136.857 
C 400.087 138.058, 401.996 139.594, 401.990 140.270 
C 401.975 142.188, 395.515 149.977, 389.218 155.669 
C 382.051 162.148, 382.779 164, 391.336 161.056 
C 401.411 157.590, 409.268 152.741, 416.535 145.505 
C 429.839 132.257, 435.058 120.181, 437.313 97.423 
C 438.072 89.765, 438.556 83.332, 438.389 83.126 
C 438.221 82.920, 436.603 84, 434.792 85.527 
C 431.325 88.450, 426.092 91, 423.559 91 
C 422.731 91, 418.262 87.429, 413.628 83.064 
C 397.130 67.524, 374.721 59.703, 347 59.811 
C 331.644 59.871, 319.566 61.571, 302.412 66.087 
C 282.416 71.351, 282.228 71.379, 279.475 69.575 
C 278.129 68.694, 276.308 66.873, 275.427 65.529 
C 273.964 63.297, 273.963 62.891, 275.413 60.821 
C 277.514 57.822, 277.421 54.691, 275.171 52.655 
C 272.812 50.520, 269.010 50.554, 264.373 52.750 
C 262.192 53.783, 260.537 54.090, 260.335 53.500 
C 259.407 50.793, 255.844 45.944, 253.798 44.605 
C 250.333 42.337, 244.033 41.801, 239.684 43.404 M 243.308 48.698 
C 240.501 49.243, 235.383 54.463, 234.130 58.058 
C 233.415 60.109, 233.524 61.317, 234.549 62.669 
C 235.880 64.426, 235.938 64.419, 235.972 62.500 
C 236.029 59.267, 239.731 54.106, 242.488 53.414 
C 245.470 52.665, 250.655 54.561, 251.949 56.873 
C 253.322 59.327, 254.277 57.539, 253.495 53.979 
C 252.982 51.642, 251.920 50.447, 249.432 49.407 
C 247.580 48.633, 245.937 48.061, 245.782 48.136 
C 245.627 48.211, 244.514 48.464, 243.308 48.698 M 258.500 58.950 L 255.500 59.664 258.755 60.582 
C 262.641 61.678, 262.929 63.241, 259.417 64.181 
C 256.591 64.937, 254 66.800, 254 68.077 
C 254 68.942, 256.995 69.553, 265.500 70.424 L 270.500 70.936 266.251 68.931 
C 262.034 66.940, 262.015 66.907, 263.643 64.422 
C 264.545 63.045, 266.120 61.471, 267.142 60.924 
C 271.818 58.422, 266.158 57.129, 258.500 58.950 M 252.500 60 
C 252.160 60.550, 252.584 61, 253.441 61 
C 254.298 61, 255 60.550, 255 60 
C 255 59.450, 254.577 59, 254.059 59 
C 253.541 59, 252.840 59.450, 252.500 60 M 251 74.632 
C 251 74.980, 251.889 76.703, 252.976 78.462 
C 258.020 86.622, 268.558 87.118, 285.500 79.993 
C 302.064 73.026, 300.685 72.456, 281.163 78.197 
C 268.211 82.006, 262.785 81.769, 257.030 77.144 
C 253.343 74.181, 251 73.205, 251 74.632 M 152.500 87.022 
C 131.217 91.294, 115.886 108.374, 114.273 129.609 
C 112.584 151.833, 128.141 172.050, 151.093 177.460 
C 167.324 181.286, 182.787 177.045, 194.030 165.683 
C 198.989 160.671, 202.020 154.974, 199.698 155.028 
C 199.039 155.043, 196.755 156.376, 194.623 157.990 
C 188.166 162.876, 181.898 164.500, 169.500 164.498 
C 159.067 164.496, 158.123 164.320, 151.190 161.072 
C 130.505 151.384, 124.371 128.694, 137.573 110.697 
C 141.927 104.762, 151.403 98.501, 158.402 96.934 
C 170.333 94.265, 184.920 97.656, 193.325 105.055 
C 198.770 109.848, 200.459 108.630, 196.063 103.080 
C 185.247 89.423, 169.485 83.613, 152.500 87.022 M 374.874 91.981 
C 367.023 92.964, 355.215 96.062, 345.500 99.688 
C 331.572 104.886, 311.905 115.805, 308.254 120.366 
C 306.866 122.099, 304.620 122.823, 297.500 123.832 
C 274.323 127.117, 252.401 135.685, 234.524 148.447 
C 225.238 155.077, 208.737 172.071, 210.183 173.516 
C 210.437 173.770, 213.087 171.884, 216.072 169.324 
C 231.531 156.066, 255.869 145.137, 280.219 140.518 
C 293.958 137.912, 293.785 137.767, 287.681 146.750 
C 281.389 156.009, 278.495 164.298, 279.357 170.589 
C 279.966 175.029, 284.098 184.325, 285.981 185.488 
C 288.678 187.155, 286.270 188.003, 278.750 188.035 
C 270.211 188.071, 256.440 190.095, 253.486 191.748 
C 252.298 192.413, 254.961 192.897, 262.479 193.383 
C 289.023 195.099, 311.121 201.513, 327.909 212.373 
C 331.925 214.971, 335.726 216.911, 336.356 216.684 
C 338.633 215.864, 321.284 200.777, 310.122 193.871 
C 303.834 189.981, 302.753 188.840, 300.303 183.500 
C 296.785 175.834, 296.652 167.113, 299.932 159.020 
C 305.302 145.766, 318.360 131.034, 331.831 123.031 
C 353.327 110.261, 388.575 102.828, 399.524 108.758 
C 403.216 110.757, 407.134 115.740, 408.463 120.127 L 409.788 124.500 410.938 121.570 
C 413.139 115.958, 413.360 110.232, 411.557 105.511 
C 409.551 100.257, 403.665 94.811, 398.258 93.205 
C 392.761 91.572, 382.451 91.033, 374.874 91.981 M 227.500 247.106 
C 212.425 248.915, 189.551 254.884, 191.236 256.569 
C 191.534 256.867, 197.791 256.381, 205.139 255.489 
C 223.317 253.281, 263.883 252.441, 281.500 253.908 
C 298.803 255.348, 318.027 258.231, 332.500 261.554 
C 347.565 265.013, 349.914 265.400, 347.872 264.085 
C 341.140 259.752, 313.973 251.706, 295 248.428 
C 283.684 246.472, 239.917 245.615, 227.500 247.106 M 270.500 276.101 
C 266.100 276.560, 257.100 278.049, 250.500 279.408 
C 240.546 281.459, 234.750 281.959, 216.500 282.340 
C 192.426 282.843, 183.428 284.063, 163.469 289.530 
C 141.328 295.594, 123.616 304.738, 111.054 316.588 
C 100.606 326.444, 97.270 335.622, 100 347.001 L 101.239 352.165 103.470 346.675 
C 110.165 330.202, 121.828 318.582, 141.500 308.785 
C 164.727 297.218, 190.615 291.459, 226 289.986 
C 237.825 289.494, 251.100 288.418, 255.500 287.595 
C 270.643 284.764, 299.193 283.495, 318.249 284.807 
C 351.312 287.083, 382.695 296.978, 395.621 309.203 
C 407.718 320.643, 402.133 327.315, 380.500 327.268 
C 361.267 327.225, 344.233 323.313, 305.250 309.984 
C 294.113 306.175, 285 303.496, 285 304.030 
C 285 304.563, 285.385 305, 285.857 305 
C 286.328 305, 290.715 307.310, 295.607 310.134 
C 309.782 318.318, 325.955 326.425, 335.070 329.916 
C 356.267 338.036, 380.332 341.989, 396.555 340.018 
C 412.166 338.120, 419.993 332.604, 419.993 323.500 
C 419.993 307.340, 382.481 285.091, 344.236 278.566 
C 323.799 275.080, 290.842 273.978, 270.500 276.101" stroke="none" fill="black" fill-rule="evenodd"/>
</svg>